<!--?xml version="1.0" encoding="utf-8"?-->
<!-- Generator: Adobe Illustrator 18.0.0, SVG Export Plug-In . SVG Version: 6.00 Build 0)  -->

<svg version="1.1" id="_x31_0" xmlns="http://www.w3.org/2000/svg" xmlns:xlink="http://www.w3.org/1999/xlink" x="0px" y="0px" viewBox="0 0 512 512" style="width: 256px; height: 256px; opacity: 1;" xml:space="preserve">
<style type="text/css">
	.st0{fill:#374149;}
</style>
<g>
	<path class="st0" d="M499.972,300.659l-64.182-31.297c-5.057-2.465-8.058-7.662-8.042-13.287c0-0.064,0-0.124,0-0.188
		c0.012-5.614,2.997-10.79,8.042-13.25l64.182-31.294c10.173-4.96,14.725-16.977,10.394-27.434l-23.528-56.797
		c-4.332-10.454-16.051-15.734-26.75-12.048l-67.507,23.255c-5.305,1.827-11.078,0.277-15.054-3.686
		c-0.044-0.04-0.088-0.084-0.132-0.128c-3.99-3.97-5.546-9.765-3.714-15.086l23.256-67.51c3.686-10.698-1.595-22.414-12.049-26.746
		L328.087,1.635c-10.454-4.332-22.47,0.224-27.43,10.394l-31.294,64.181c-2.468,5.061-7.661,8.058-13.29,8.042
		c-0.06,0-0.124,0-0.188,0c-5.61-0.012-10.786-2.997-13.246-8.042l-31.294-64.181c-4.96-10.17-16.981-14.726-27.434-10.394
		L127.11,25.163c-10.454,4.327-15.73,16.047-12.044,26.746l23.251,67.51c1.831,5.305,0.281,11.079-3.682,15.054
		c-0.044,0.044-0.088,0.088-0.132,0.136c-3.967,3.987-9.761,5.542-15.082,3.71L51.91,115.064
		c-10.698-3.686-22.418,1.594-26.75,12.048L1.636,183.908c-4.331,10.458,0.221,22.474,10.394,27.434l64.181,31.294
		c5.057,2.468,8.054,7.665,8.038,13.29c0,0.064,0,0.124,0,0.188c-0.008,5.614-2.993,10.79-8.042,13.251L12.03,300.659
		c-10.174,4.957-14.726,16.977-10.398,27.43L25.16,384.89c4.332,10.454,16.048,15.731,26.746,12.045l67.515-23.252
		c5.305-1.827,11.078-0.28,15.054,3.682c0.044,0.044,0.088,0.088,0.132,0.132c3.991,3.967,5.546,9.761,3.71,15.082l-23.251,67.511
		c-3.686,10.698,1.59,22.418,12.048,26.75l56.797,23.528c10.454,4.327,22.474-0.225,27.434-10.398l31.294-64.182
		c2.464-5.056,7.661-8.054,13.29-8.038c0.06,0,0.124,0,0.184,0c5.614,0.008,10.79,2.998,13.25,8.042l31.294,64.178
		c4.96,10.173,16.977,14.725,27.43,10.398l56.801-23.528c10.458-4.331,15.734-16.051,12.049-26.75l-23.256-67.506
		c-1.827-5.31-0.276-11.083,3.686-15.058c0.044-0.045,0.088-0.089,0.132-0.133c3.967-3.99,9.761-5.546,15.082-3.714l67.511,23.256
		c10.698,3.686,22.418-1.591,26.746-12.045l23.528-56.801C514.697,317.635,510.141,305.616,499.972,300.659z M286.168,305.616
		c-4.824,3.534-10.506,5.886-16.416,6.799c-65.282,10.049-97.189-66.978-43.918-106.028c4.824-3.538,10.506-5.89,16.42-6.8
		C307.533,189.538,339.434,266.561,286.168,305.616z" style="fill: rgb(0, 0, 0);"></path>
</g>
</svg>
