<!--?xml version="1.0" encoding="utf-8"?-->
<!-- Generator: Adobe Illustrator 18.0.0, SVG Export Plug-In . SVG Version: 6.00 Build 0)  -->

<svg version="1.1" id="_x31_0" xmlns="http://www.w3.org/2000/svg" xmlns:xlink="http://www.w3.org/1999/xlink" x="0px" y="0px" viewBox="0 0 512 512" style="width: 256px; height: 256px; opacity: 1;" xml:space="preserve">
<style type="text/css">
	.st0{fill:#374149;}
</style>
<g>
	<path class="st0" d="M339.906,358.004l24.43,24.434c6.582-5.461,12.641-11.523,18.102-18.106l-24.43-24.426
		C352.742,346.668,346.668,352.742,339.906,358.004z" style="fill: rgb(0, 0, 0);"></path>
	<path class="st0" d="M89.942,243.199c-0.391,4.218-0.645,8.477-0.645,12.801c0,4.32,0.254,8.578,0.645,12.797h34.457
		c-0.523-4.203-0.882-8.453-0.882-12.797s0.359-8.598,0.882-12.801H89.942z" style="fill: rgb(0, 0, 0);"></path>
	<path class="st0" d="M153.992,339.906l-24.43,24.426c5.457,6.586,11.52,12.645,18.102,18.106l24.43-24.434
		C165.328,352.742,159.258,346.668,153.992,339.906z" style="fill: rgb(0, 0, 0);"></path>
	<path class="st0" d="M422.054,243.199h-34.457c0.527,4.203,0.886,8.457,0.886,12.801s-0.359,8.594-0.886,12.797h34.457
		c0.395-4.218,0.649-8.477,0.649-12.797C422.703,251.676,422.45,247.418,422.054,243.199z" style="fill: rgb(0, 0, 0);"></path>
	<path class="st0" d="M268.797,124.398V89.942c-4.218-0.391-8.477-0.649-12.797-0.649c-4.324,0-8.582,0.258-12.801,0.649v34.457
		c4.203-0.527,8.457-0.886,12.801-0.886S264.594,123.871,268.797,124.398z" style="fill: rgb(0, 0, 0);"></path>
	<path class="st0" d="M243.199,387.598v34.461c4.218,0.387,8.477,0.645,12.801,0.645c4.32,0,8.578-0.258,12.797-0.645v-34.461
		c-4.203,0.527-8.453,0.886-12.797,0.886S247.402,388.125,243.199,387.598z" style="fill: rgb(0, 0, 0);"></path>
	<path class="st0" d="M172.094,153.992l-24.43-24.43c-6.582,5.457-12.645,11.52-18.102,18.102l24.43,24.43
		C159.258,165.328,165.332,159.254,172.094,153.992z" style="fill: rgb(0, 0, 0);"></path>
	<path class="st0" d="M256,0C114.614,0,0,114.614,0,256c0,141.383,114.614,256,256,256c141.383,0,256-114.617,256-256
		C512,114.614,397.383,0,256,0z M256,448c-105.871,0-192-86.133-192-192c0-105.871,86.129-192,192-192c105.867,0,192,86.129,192,192
		C448,361.867,361.867,448,256,448z" style="fill: rgb(0, 0, 0);"></path>
	<polygon class="st0" points="351.492,138.172 260.606,241.645 296.797,273.172 387.68,169.699 	" style="fill: rgb(0, 0, 0);"></polygon>
	<polygon class="st0" points="152.422,230.363 254.094,323.258 286.328,287.695 184.656,194.797 	" style="fill: rgb(0, 0, 0);"></polygon>
</g>
</svg>
