<!--?xml version="1.0" encoding="utf-8"?-->
<!-- Generator: Adobe Illustrator 18.1.1, SVG Export Plug-In . SVG Version: 6.00 Build 0)  -->

<svg version="1.1" id="_x31_0" xmlns="http://www.w3.org/2000/svg" xmlns:xlink="http://www.w3.org/1999/xlink" x="0px" y="0px" viewBox="0 0 512 512" style="width: 256px; height: 256px; opacity: 1;" xml:space="preserve">
<style type="text/css">
	.st0{fill:#374149;}
</style>
<g>
	<path class="st0" d="M256,0C114.614,0,0,114.617,0,256c0,141.386,114.614,256,256,256c141.383,0,256-114.614,256-256
		C512,114.617,397.383,0,256,0z M256,448c-105.871,0-192-86.129-192-192c0-105.867,86.129-192,192-192c105.867,0,192,86.133,192,192
		C448,361.871,361.867,448,256,448z" style="fill: rgb(0, 0, 0);"></path>
	<path class="st0" d="M264.246,125.293c-0.711-0.117-1.489-0.183-2.329-0.183c-10.797,0-30.082,10.652-30.082,31.878
		c0,17.508,14.242,31.75,31.75,31.75c20.446,0,31.75-18.008,31.75-30.454C295.336,142.516,281.977,128.332,264.246,125.293z" style="fill: rgb(0, 0, 0);"></path>
	<path class="st0" d="M208.66,248.355h24.141c10.539,0,11.61,2.199,11.61,11.61V386.89h46.156V209.137H208.66V248.355z" style="fill: rgb(0, 0, 0);"></path>
</g>
</svg>
