<!--?xml version="1.0" encoding="utf-8"?-->
<!-- Generator: Adobe Illustrator 18.1.1, SVG Export Plug-In . SVG Version: 6.00 Build 0)  -->

<svg version="1.1" id="_x31_0" xmlns="http://www.w3.org/2000/svg" xmlns:xlink="http://www.w3.org/1999/xlink" x="0px" y="0px" viewBox="0 0 512 512" style="width: 32px; height: 32px; opacity: 1;" xml:space="preserve">
<style type="text/css">
	.st0{fill:#374149;}
</style>
<g>
	<path class="st0" d="M316.016,259.734c-0.414,2.633-1.661,3.602,0,4.289c1.66,0.695,1.797-0.828,4.98-3.457
		c3.18-2.629,3.18,0.137,6.637,0.278c3.461,0.14,5.121-2.074,5.813-3.594c0.164-0.364,0.363-0.634,0.586-0.864
		c0.023-0.023,0.043-0.05,0.066-0.07c0.715-0.684,1.715-0.871,2.942-1.286c1.66-0.55,3.598-0.828,5.535-1.797
		c1.934-0.969,0.55-3.32,0.55-5.531s1.524-3.18,2.629-4.981c1.11-1.801-0.828-5.394-1.105-6.637
		c-0.278-1.25,0.277-2.769,1.246-4.843c0.969-2.074,2.625,0,2.625,0s5.535-2.626,7.196-2.906c1.66-0.274,0.55-3.039-1.524-2.902
		c-2.074,0.137-5.523-2.652-7.328-3.32c-2.629-0.969-0.969,3.042-1.246,4.98c-0.277,1.938-0.554,0.414-3.042,1.242
		c-2.492,0.832-1.66,2.906-1.524,5.117c0.141,2.219,0.555,5.122,0,8.578c-0.55,3.461-2.488,2.078-5.531,2.211
		c-3.042,0.141-1.519,1.382-3.042,4.57c-1.524,3.179-3.598,1.382-7.332,1.934c-3.734,0.55-3.734,0.969-9.27,4.011
		C310.344,257.801,316.43,257.11,316.016,259.734z" style="fill: rgb(0, 0, 0);"></path>
	<path class="st0" d="M301.77,313.68c-1.215-2.985-2.039-2.391-2.453-2.196l-0.301-0.293c0-0.054-0.016-0.066-0.016-0.137
		c0-1.66-1.656-1.938-4.008-2.351c-2.351-0.414-1.523-2.625-0.695-4.562c0.832-1.938-0.414-6.641-3.043-7.055
		c0,0-1.105,1.242-2.902,5.118c-1.797,3.875,0.137,2.351,0.692,7.882c0.55,5.531-1.246,3.321-4.149,6.914
		c-2.906,3.602-4.703,4.57-4.844,5.258c-0.136,0.695,4.566,0.141,7.746-1.797c3.18-1.938,3.734-4.98,5.535-4.562
		c1.797,0.414-0.141,3.039,1.106,5.254c1.242,2.215,0.691,2.074-0.414,4.012c-1.109,1.938-0.691,1.938,0.692,2.074
		c1.382,0.137,2.351-2.215,3.87,0.691c1.524,2.906,0.278,2.352,3.321,3.321c3.043,0.968,0.828-0.829,3.734-2.493
		c2.906-1.656,0.414-3.32-1.66-6.637C301.906,318.801,303.566,318.11,301.77,313.68z" style="fill: rgb(0, 0, 0);"></path>
	<path class="st0" d="M296.926,361.406c-1.934-1.383-1.106-2.492-0.274-3.598c0.829-1.106-0.14-4.153-2.492-5.809
		c-0.222-0.16-0.359-0.336-0.492-0.512c-0.074-0.102-0.152-0.203-0.199-0.312c-0.746-1.641,1.683-3.863,4.148-6.094
		c2.906-2.63,5.118-2.766,4.844-4.566c-0.278-1.798-3.043-0.829-7.469-0.829c-4.43,0-4.289,1.383-6.086,1.661
		c-1.801,0.277-3.047-2.77-4.418-4.84c-1.367-2.078,1.098-2.352,1.926-4.43c0.828-2.07-1.918-1.5-4.012-3.594
		c-2.352-2.351-3.457,2.211-6.363,4.008c-2.902,1.801-1.242,0.555-4.286,1.801c-3.042,1.246-3.042,2.215-6.503,5.95
		c-3.458,3.734-3.321,0.274-5.395,0.969c-2.074,0.687-0.691,4.703,1.801,7.882c2.489,3.18-1.382,2.625-4.011,3.18
		c-2.629,0.554-4.981,0-12.176-4.84c-7.191-4.84-4.562-4.426-14.383-12.59c-9.82-8.157-8.301-4.422-11.48-4.422
		c-3.184,0,0.828,4.149,5.531,7.055c4.703,2.902,2.074,2.902,7.61,10.234c5.531,7.328,3.734,3.874,8.16,10.93
		c4.426,7.05,9.683,3.734,17.703,7.606c8.023,3.87,9.961,0.965,21.438,2.074c11.48,1.11,6.922,2.766,12.594,2.63
		c5.668-0.137,11.062-1.938,13.277-5.258C308.133,362.375,298.863,362.789,296.926,361.406z" style="fill: rgb(0, 0, 0);"></path>
	<path class="st0" d="M359.313,363.344c-0.141-3.602-2.078-1.524-4.703-5.122c-2.629-3.598-6.918-4.285-9.406-5.394
		c-2.492-1.11-8.438-3.32-12.45-3.438c-3.48-0.102-5.5,2.758-6.699,2.164c-0.027-0.011-0.05-0.038-0.078-0.054
		c-0.149-0.098-0.294-0.234-0.418-0.469c-1.106-2.078-3.613-4.57-5.117-6.5c-0.969-1.25-4.29-2.766-5.95-1.523
		c-1.656,1.242-0.828,3.042,1.801,5.531c2.629,2.492,1.52,2.766,1.52,5.672c0,0.441,0.187,0.644,0.316,0.918
		c0.008,0.02,0.012,0.043,0.02,0.062c0.75,1.45,3.398,0.992,9.07,3.309c6.782,2.766,5.395,2.906,3.462,6.641
		c-1.938,3.734,1.105,2.351,5.254,2.625c4.149,0.282,5.672,1.523,9.129,0.828c3.457-0.687,1.66-1.93,6.086-2.484
		c4.43-0.555,5.671,5.117,9.82,6.774c4.152,1.664,3.734-2.211,1.386-4.29C360,366.523,359.45,366.938,359.313,363.344z" style="fill: rgb(0, 0, 0);"></path>
	<path class="st0" d="M502.078,185.282c-0.559-2-1.122-4-1.758-5.918c-0.402-1.442-0.882-2.879-1.441-4.32
		c-1.922-6-4.161-11.918-6.559-17.68c-0.961-2.238-1.922-4.48-2.882-6.722c-1.118-2.477-2.321-4.875-3.52-7.278
		c-6.082-12.48-13.121-24.32-21.121-35.519c-0.32-0.481-0.641-0.883-1.039-1.36C417.359,42,341.519,0,256,0
		C168.398,0,91.039,44.086,44.879,111.203c-0.641,0.961-1.282,1.84-1.922,2.797c-3.121,4.641-6.078,9.363-8.801,14.164
		c-3.758,6.398-7.117,12.961-10.238,19.68c-0.238,0.558-0.48,1.039-0.718,1.602c-4.961,10.797-9.199,21.918-12.562,33.438
		c-1.039,3.359-2,6.718-2.879,10.078c-2.801,11.203-4.878,22.805-6.16,34.562c-0.718,6.562-1.199,13.199-1.442,19.922
		C0.078,250.32,0,253.125,0,256c0,63.363,23.039,121.446,61.199,166.164C108.238,477.125,178.078,512,256,512
		c65.758,0,125.68-24.797,171.039-65.516c0-0.082,0.078-0.082,0.078-0.082c2.161-2,4.321-3.918,6.402-6
		c33.278-32.082,57.918-73.121,70-119.278v-0.082c0.317-1.043,0.637-2.082,0.879-3.122c0.879-3.199,1.602-6.398,2.238-9.602
		c0.16-0.718,0.32-1.437,0.402-2.156c0.16-0.718,0.32-1.359,0.398-2.078c0.16-0.722,0.32-1.445,0.398-2.164
		C510.558,287.043,512,271.683,512,256C512,231.446,508.558,207.766,502.078,185.282z M368.89,430.406
		c2.766-5.29,2.16-8.57,1.902-12.985c-0.277-4.699-6.09-9.402-6.679-13.969c-0.59-4.562-3.696-3.87-7.153-7.882
		c-3.461-4.012-4.152-2.766-4.844-6.641c-0.691-3.875-1.382-4.84-4.702-6.133c-3.321-1.297-1.383-5.347-3.458-7.422
		c-2.074-2.074-2.214,3.042-3.874,8.023c-1.661,4.977-0.829,6.359-3.043,7.191c-2.211,0.832-4.012-3.871-8.574-6.222
		c0,0,0.278-2.078-0.414-5.117c-0.691-3.047-2.629-2.215-7.886-2.766c-5.254-0.554-2.351,2.485-5.254,5.668
		c-2.906,3.184-2.215,3.043-5.672,1.661c-3.457-1.383-5.672-2.493-7.61-2.493s-2.629,1.524-5.254,3.462
		c-2.629,1.937-3.598,8.297-7.887,9.961c-4.285,1.656-5.671,0.274-10.374,3.457c-4.699,3.18-5.946,1.246-7.329,2.766
		c-1.386,1.519-0.554,2.488-3.042,7.054c-2.492,4.566-1.11,3.043,0.691,6.223c1.797,3.179,0.965,2.214,2.902,8.851
		c1.938,6.641,2.214,4.016,2.078,7.887c-0.141,3.87-1.246,4.702,1.797,6.363c3.042,1.66,7.191-1.11,9.961-2.352
		c2.766-1.242,7.742,0,10.926-2.492c3.18-2.484,6.222-3.453,9.129-4.149c2.906-0.687,4.703-0.136,11.618,0.969
		c6.918,1.11,5.258,3.18,7.609,5.672c2.352,2.492,1.798,0.555,5.672,0c3.875-0.554,4.29,4.562,5.118,6.086
		c0.542,1,1.582,2.39,2.871,3.781c0.441,0.551,0.82,1.07,1.363,1.641C313.965,457.77,285.66,464,256,464
		c-32.883,0-64.082-7.68-91.762-21.516c-0.481-0.242-1.039-0.484-1.52-0.718c-5.281-2.641-10.48-5.523-15.519-8.641
		c-0.481-0.32-0.961-0.562-1.442-0.961c-10.863-6.82-21.019-14.66-30.422-23.316c-4.133-3.898-8.149-7.922-11.914-12.207
		c0.496-0.762,0.985-1.524,1.512-2.317c6.641-9.957,2.215-14.386,0.832-21.855c-1.382-7.469-1.938,0.832-4.152,4.703
		c-1.512,2.652-4.672,6.046-7.25,9.011l-0.214,0.207c-5.035-6.156-9.672-12.633-13.91-19.347v-0.16
		c-0.16-1.68-0.16-3.438,0.082-5.36c0.958-7.438,1.68-13.922,8.879-19.922c7.199-5.918,8.801-0.078,13.758-11.359
		c5.043-11.199,10.961-13.922,5.442-13.758c-5.519,0.078-16.32,4.559-20.879,2.078c-4.562-2.562-12.082-13.84-13.602-19.117
		c-1.519-5.282-0.961-2.641-3.598-10.082c-2.562-7.519-5.121-11.363-6.164-14.238c-0.422-1.117-0.785-2.535-0.894-3.652
		c-0.008-0.695,0.106-1.301,0.406-1.742c0.371-0.137,0.984,0.199,2.012,1.473c3.277,4.16,6.476,10.398,10.878,19.922
		c4.481,9.516,7.039,16.875,10.961,18.398c3.84,1.52,5.118,3.36,10.879,0.961c5.84-2.32,7.922-2.64,13.438-5.679
		c5.523-3.039,8.882-3.602,12.882-7.602c4-4,13.118-5.68,3.039-9.52c-10.078-3.839-13.519-1.683-16.48-6.082
		c-2.879-4.398-7.598-8.879-3.278-8.156c4.238,0.64,2.637,1.918,7.438,2.874c4.882,0.962,8.32-1.195,10.961,2.321
		c2.336,3.117,6.054,5.234,9.766,4.386h0.008c0.477-0.11,0.953-0.086,1.426-0.305c4.16-2,5.762-3.039,10.238-0.558
		c4.402,2.477,1.523,9.519,8.164,11.438c6.637,1.922,7.758-5.199,9.117,3.922c1.36,9.118,4,17.52,6.321,19.36
		c2.398,1.758-1.199,10.078,6.242,7.839c7.519-2.16,9.679-1.918,9.679-9.679c0-7.762-0.242-9.68,3.758-12.402
		c4-2.797,9.52-5.516,12-8.477c2.481-2.882,0.962-4.718,6-4.164c4.962,0.562,17.282,14.402,16.719,17.282
		c-0.558,2.961-1.118,4.082,1.203,5.843c2.398,1.836,2.238,2.321,4.078,8.875c1.762,6.484,1.36,5.523,7.039,11.602
		c5.68,6.082,13.68,10.398,12.961,5.922c-0.64-4.398-3.437-3.84-5.918-10.882c-1.398-3.969-2.886-7.676-3.363-9.89
		c-0.114-0.902-0.047-1.614,0.32-2.07c0.23-0.028,0.543,0.058,0.961,0.281c3.36,1.844,2.321,4.485,5.84,5.039
		c3.442,0.562,4-3.438,6.641-4.718c2.558-1.282,7.282-11.36,3.602-15.758c-3.762-4.398-7.68-7.523-3.762-8.882
		c3.84-1.359,2.082-0.398,6.641,0.402c4.558,0.878,3.199-1.36,8.718-2.879c5.523-1.523,13.523-4,17.84-9.523
		c4.242-5.516,8.961-7.195,7.762-14.555c-1.282-7.281-2.961-10.484-5.519-12.402c-2.641-2-2.801-3.363-0.481-4.16
		c2.398-0.882,8.481-0.961,5.039-2.801c-3.52-1.762-1.84-0.801-5.84-1.762s-8.32,0.961-4.718-2.398
		c2.82-2.61,5.054-4.758,5.949-5.582c0.11-0.059,0.222-0.133,0.317-0.157c-0.102,0.371-0.008,1.223,1.492,2.859
		c2.32,2.481,3.84,1.36,4.961,0.801c1.121-0.562,4.481-2.882,4.879-0.242c0.402,2.641-4.321,4.562-1.52,5.523
		c2.723,0.957,5.199-1.523,4.16,3.438c-1.117,5.039,1.039,9.602,3.442,7.039c2.321-2.477,5.762-9.758,5.122-12.797
		c-0.723-3.043-3.043-1.524,0.156-7.126c3.121-5.515,3.121-9.359,7.442-8.637c4.32,0.637,8.402-3.519,10.082-5.121
		c1.68-1.679,8.719-5.602,9.84-10.242c1.121-4.718,0.558-5.437,2.078-10.797c1.519-5.438,4.801-5.438,0.64-7.922
		c-4.082-2.477-7.281-1.918-8-4.718c-0.64-2.719,11.122-16.161,16.161-18.242c5.121-2.078,8.718-1.118,12.242,0.402
		c3.438,1.519,4.559,3.042,7.68,1.121c3.199-1.922,5.278-3.039,7.117-3.203c1.762-0.078,6.719-3.836,8.801-2.156
		c2.082,1.679,2.402,3.438,4.879,2.32c2.481-1.125,5.762-6.882,6.883-4.805c1.117,2.082,0.878,4.563-2.161,8.563
		c-3.042,4-5.683,4.718-9.602,7.839c-3.839,3.199-5.359,6.559-5.359,9.442c0,2.879-1.121,12.558,0.398,12.719
		c1.52,0.16,1.922-0.242,5.922-5.36c4.078-5.121,6.078-5.438,8.718-7.359s3.602-4.32,4-8.882c0.481-4.559-2.481-5.68,1.84-8
		c4.32-2.321,9.442-4.798,13.679-4.157c4.321,0.719,3.36,0.558,6.481-2.641c3.199-3.121,5.442-5.202,8.722-4.961
		c2.879,0.242,7.118,0.797,8.879-0.078C455.758,189.844,464,222,464,256c0,11.203-0.883,22.242-2.641,33.043
		c-0.082,0.558-0.16,1.199-0.32,1.762c-7.359,43.683-28.469,82.84-58.691,112.828C392.234,413.602,381.039,422.594,368.89,430.406z
		 M54.558,263.363c-2.961,0.32-4.878,0.801-6.402,1.121C48.078,261.683,48,258.805,48,256c0-6.156,0.238-12.156,0.879-18.156
		c0.801-0.398,1.598-1.122,2.078-2.719c1.68-5.442-2.078-7.281,2.082-10.242c4.16-2.883,6-4.883,7.199-2.242
		c1.281,2.641,4.48,5.445,6,2.641c1.519-2.719-2.801-3.598,0.801-5.68c1.582-0.914,3.066-1.875,4.172-2.394
		c0.438-0.153,0.874-0.34,1.301-0.34c0.019,0,0.035,0.008,0.054,0.008c0.461,0.094,0.629,0.574,0.313,1.766
		c-1.043,3.602-2.402,5.922,0.078,8.484c2.481,2.477,9.84,4,5.84,6.157c-4,2.242-9.84,1.038-15.199,3.359
		c-5.442,2.32-6.238,1.203-7.598,5.679c-1.442,4.402-1.523,5.766,3.039,5.766c4.558,0,6.641-3.125,7.84,0.875
		c1.277,4,0.957,12.961-0.962,13.844C64,263.602,63.199,262.402,54.558,263.363z M409.519,115.766
		c0.398,0.398,0.719,0.797,1.118,1.195c3.453,3.875,6.714,7.867,9.863,11.977c0.379,0.535,0.824,1.066,1.187,1.606
		c-0.605-0.074-0.984-0.141-1.129-0.141c-0.402,0,1.52,1.281-1.199,2.641c-2.801,1.359-4.961,1.679-7.762-0.16
		c-2.801-1.758-2.641-2.321-7.359-1.922c-4.641,0.402-7.442,1.523-9.52,1.762c-0.332,0.051-0.535,0.074-0.691,0.086
		c-0.121-0.027-0.254-0.066-0.418-0.145c-0.153-0.27-0.203-0.938-2.09-2.262c-3.121-2.238-0.961-3.442-6.48-3.039
		c-5.52,0.402-7.922,0.637-9.282-0.082c-1.359-0.719,0.321-4.641-5.121-6.321c-5.359-1.598-6.481-0.398-9.278-0.797
		c-2.722-0.398-2.641-1.121-10.48-1.68c-7.922-0.562-7.442,0.719-12.879,2.399c-5.363,1.601-6.801,1.601-11.762,1.359
		c-4.961-0.242-3.762,2.801-6.801,3.203c-3.039,0.398-7.84-2.641-8.398-4.485c-0.562-1.758,4.16-3.679,0-5.359
		s-11.922-4.797-13.442-4.32c-1.519,0.562-0.641,3.038-3.442,3.762c-2.797,0.722-6.398,0.722-10.637-1.199
		c-4.32-2-5.922-2.961-10.562-2.562c-4.558,0.32-7.039,1.679-10.878,2c-3.922,0.242-6.242-1.438-3.602-2.641
		c2.64-1.278,5.922-4.958,5.922-6.797c0-1.758,1.922-5.68-2.481-6.078c-4.398-0.402-5.281,2.637-9.359,0
		c-4.16-2.641-9.602-2.805-11.121-1.922c-1.52,0.797-1.52,2.156-4.16,2.64c-2.559,0.399-1.598,2.719-4.801,3.602
		c-3.199,0.798-2.797-1.683-10.078-1.042c-7.359,0.722-14.398,1.679-16.242,3.762c-1.758,2.078,0.481,4.398-3.438,6.238
		c-3.839,1.762-12.718,0.402-13.839,1.918c-1.122,1.523,4.878,6.805,0.878,9.125c-0.39,0.227-0.754,0.352-1.125,0.473
		c-0.211,0.07-0.43,0.141-0.649,0.184c-3.214,0.621-6.195-2.016-14.066-0.657c-9.199,1.68-8.16,1.438-11.598,3.516
		c-3.441,2-4.164,0.641-6.242,3.523c-2,2.961-8.242,5.598-12.559,5.598c-4.242,0-6.082-2.637-11.602-0.48
		c-5.519,2.242-4.718,3.758-13.441,3.039c-8.719-0.641-12.321-0.477-13.918,0.562c-1.679,1.117-1.679,3.922-6,5.117
		C94.32,144.242,87.68,146.484,86,146c-1.043-0.274-3.707,0.758-6.43,1.614c-0.39,0.09-0.738,0.226-1.164,0.258
		c5.258-8.672,11.226-16.95,17.75-24.746c0.402-0.402,0.723-0.882,1.122-1.281C135.438,76.641,192.477,48,256,48
		C316.797,48,371.438,74.164,409.519,115.766z" style="fill: rgb(0, 0, 0);"></path>
</g>
</svg>
