<!--?xml version="1.0" encoding="utf-8"?-->
<!-- Generator: Adobe Illustrator 18.1.1, SVG Export Plug-In . SVG Version: 6.00 Build 0)  -->

<svg version="1.1" id="_x31_0" xmlns="http://www.w3.org/2000/svg" xmlns:xlink="http://www.w3.org/1999/xlink" x="0px" y="0px" viewBox="0 0 512 512" style="width: 64px; height: 64px; opacity: 1;" xml:space="preserve">
<style type="text/css">
	.st0{fill:#374149;}
</style>
<g>
	<path class="st0" d="M97.645,220.594v0.16h40.992h0.125l0,0h0.164V94.945h233.688h0.554V220.2v0.351v0.203h41.187V86.051
		c0-17.797-14.496-32.293-32.293-32.293H130.027c-17.882,0-32.382,14.496-32.382,32.293v134.125v0.008V220.594L97.645,220.594z" style="fill: rgb(0, 0, 0);"></path>
	<path class="st0" d="M112.187,303.047h287.535c23.489,0,42.528-19.035,42.528-42.434v-11.836H71.043l-1.133-0.003v0.003h-0.16
		v11.836C69.75,284.012,88.789,303.047,112.187,303.047z M234.782,278.051v-4.274c0-1.602,1.242-2.843,2.843-2.843h36.657
		c1.602,0,2.847,1.242,2.847,2.843v4.274c0,1.602-1.246,2.848-2.847,2.848h-36.657C236.023,280.899,234.782,279.652,234.782,278.051
		z" style="fill: rgb(0, 0, 0);"></path>
	<path class="st0" d="M312.715,400.621h-41.074v-55.973h-31.282v55.961v0.012h-41.074c-9.503,0-17.285,7.778-17.285,17.286v23.05
		c0,9.508,7.782,17.285,17.285,17.285h113.43c9.507,0,17.285-7.777,17.285-17.285v-23.05
		C330,408.399,322.222,400.621,312.715,400.621z" style="fill: rgb(0, 0, 0);"></path>
	<path class="st0" d="M0,430.254c0,6.367,5.16,11.523,11.523,11.523h144.875v-23.046H11.523C5.16,418.731,0,423.891,0,430.254z" style="fill: rgb(0, 0, 0);"></path>
	<path class="st0" d="M500.477,418.731H355.602v23.046h144.875c6.363,0,11.523-5.156,11.523-11.523
		C512,423.891,506.84,418.731,500.477,418.731z" style="fill: rgb(0, 0, 0);"></path>
</g>
</svg>
